<svg xmlns="http://www.w3.org/2000/svg" viewBox="0 0 96 96"><g id="icon"><path d="M78.32,89.75H19.92a3.07,3.07,0,0,1-3.06-3.06V7.29a5.05,5.05,0,0,1,5.05-5H66.29a.75.75,0,0,1,.53.22L83.14,18.79a.75.75,0,0,1,.22.53V84.71A5,5,0,0,1,78.32,89.75Zm-56.41-86a3.55,3.55,0,0,0-3.55,3.54v79.4a1.56,1.56,0,0,0,1.56,1.56h58.4a3.55,3.55,0,0,0,3.54-3.54V19.63L66,3.75Z"/><path d="M73.78,93.75H17.65a5,5,0,0,1-5-5v-77a5,5,0,0,1,5-5,.75.75,0,0,1,0,1.5,3.5,3.5,0,0,0-3.47,3.52v77a3.51,3.51,0,0,0,3.51,3.51H73.78A3.52,3.52,0,0,0,77.29,89a.75.75,0,1,1,1.5.09A5,5,0,0,1,73.78,93.75Z"/><path d="M49.4,62A16.71,16.71,0,1,1,66.11,45.27,16.72,16.72,0,0,1,49.4,62Zm0-31.91a15.21,15.21,0,1,0,15.21,15.2A15.22,15.22,0,0,0,49.4,30.07Z"/><path d="M36.83,81.29H29.64a2.82,2.82,0,0,1-2.82-2.82V71.28a2.82,2.82,0,0,1,2.82-2.82h7.19a2.82,2.82,0,0,1,2.82,2.82v7.19A2.82,2.82,0,0,1,36.83,81.29ZM29.64,70a1.32,1.32,0,0,0-1.32,1.32v7.19a1.32,1.32,0,0,0,1.32,1.32h7.19a1.32,1.32,0,0,0,1.32-1.32V71.28A1.32,1.32,0,0,0,36.83,70Z"/><path d="M71.9,72.15H49.4a.75.75,0,0,1,0-1.5H71.9a.75.75,0,0,1,0,1.5Z"/><path d="M64,79.1H49.4a.75.75,0,0,1,0-1.5H64a.75.75,0,1,1,0,1.5Z"/><path d="M57.63,21.45H29.17a2.83,2.83,0,0,1-2.82-2.82v-4.7a2.83,2.83,0,0,1,2.82-2.82H57.63a2.83,2.83,0,0,1,2.83,2.82v4.7A2.83,2.83,0,0,1,57.63,21.45ZM29.17,12.61a1.32,1.32,0,0,0-1.32,1.32v4.7A1.32,1.32,0,0,0,29.17,20H57.63A1.33,1.33,0,0,0,59,18.63v-4.7a1.33,1.33,0,0,0-1.33-1.32Z"/><path d="M65.36,46h-16a.75.75,0,0,1-.75-.75v-16a.76.76,0,0,1,.75-.75,16.73,16.73,0,0,1,16.71,16.7A.75.75,0,0,1,65.36,46Zm-15.21-1.5H64.59A15.23,15.23,0,0,0,50.15,30.09Z"/><path d="M82.61,20.07H69.51a4,4,0,0,1-4-4V3a.75.75,0,0,1,1.28-.53L83.14,18.79a.75.75,0,0,1,.16.82A.74.74,0,0,1,82.61,20.07ZM67,4.81V16.1a2.48,2.48,0,0,0,2.47,2.47H80.8Z"/></g></svg>